<svg width="600" height="600" viewBox="0 0 600 600" fill="none" xmlns="http://www.w3.org/2000/svg">
<rect width="600" height="600" fill="#1E2342"/>
<path fill-rule="evenodd" clip-rule="evenodd" d="M278.06 258.761L278.016 317.461C278.016 336.675 273.992 353.604 265.945 368.245C258.194 382.579 247.313 393.865 233.303 402.101C219.293 410.029 203.049 413.995 184.568 413.995C166.385 413.995 150.139 409.878 135.831 401.642C121.821 393.408 110.792 382.122 102.745 367.788C94.9938 353.145 91.1182 336.372 91.1182 317.461V189.815H140.302V315.172C140.302 325.849 141.941 334.999 145.221 342.624C148.797 349.944 153.865 355.586 160.424 359.551C167.278 363.517 175.327 365.498 184.568 365.498C198.876 365.498 209.756 361.23 217.208 352.688C224.957 343.844 228.832 331.339 228.832 315.172L228.881 258.526C228.881 243.892 231.946 230.999 238.074 219.848C243.978 208.931 252.265 200.335 262.935 194.063C273.606 188.024 285.978 185.004 300.053 185.004C313.902 185.004 326.275 188.14 337.172 194.412C347.843 200.683 356.243 209.279 362.371 220.196C368.275 231.348 371.227 244.123 371.227 258.526L371.286 315.172C371.286 325.849 372.927 334.999 376.205 342.624C379.783 349.944 384.849 355.586 391.408 359.551C398.264 363.517 406.311 365.498 415.552 365.498C429.86 365.498 440.74 361.23 448.192 352.688C455.943 343.844 459.816 331.339 459.816 315.172V189.815H509V317.461C509 336.675 504.976 353.604 496.929 368.245C489.178 382.579 478.299 393.865 464.289 402.101C450.279 410.029 434.033 413.995 415.552 413.995C397.369 413.995 381.122 409.878 366.815 401.642C352.805 393.408 341.778 382.122 333.729 367.788C325.978 353.145 322.104 336.372 322.104 317.461L322.047 258.761C322.047 253.456 321.233 248.91 319.603 245.121C317.826 241.484 315.308 238.681 312.049 236.711C308.644 234.74 304.645 233.756 300.053 233.756C292.945 233.756 287.539 235.877 283.836 240.121C279.986 244.515 278.06 250.728 278.06 258.761Z" fill="#11B7A7"/>
</svg>
