<svg width="988" height="196" viewBox="0 0 988 196" fill="none" xmlns="http://www.w3.org/2000/svg">
<path fill-rule="evenodd" clip-rule="evenodd" d="M332.721 102.125L332.694 137.424C332.694 148.978 330.266 159.158 325.412 167.961C320.735 176.581 314.171 183.367 305.718 188.32C297.266 193.087 287.465 195.472 276.315 195.472C265.345 195.472 255.543 192.996 246.911 188.044C238.458 183.092 231.804 176.306 226.949 167.686C222.273 158.881 219.935 148.795 219.935 137.424V60.6667H249.608V136.047C249.608 142.467 250.597 147.97 252.576 152.555C254.734 156.957 257.791 160.349 261.748 162.734C265.884 165.118 270.74 166.31 276.315 166.31C284.947 166.31 291.512 163.743 296.007 158.607C300.683 153.288 303.021 145.769 303.021 136.047L303.05 101.984C303.05 93.1847 304.899 85.4313 308.597 78.7263C312.158 72.1612 317.158 66.9927 323.596 63.2207C330.034 59.5895 337.498 57.7734 345.99 57.7734C354.345 57.7734 361.81 59.659 368.385 63.431C374.822 67.2019 379.891 72.3706 383.588 78.9356C387.15 85.6416 388.931 93.3235 388.931 101.984L388.966 136.047C388.966 142.467 389.956 147.97 391.934 152.555C394.093 156.957 397.149 160.349 401.106 162.734C405.243 165.118 410.098 166.31 415.673 166.31C424.305 166.31 430.87 163.743 435.365 158.607C440.042 153.288 442.379 145.769 442.379 136.047V60.6667H472.052V137.424C472.052 148.978 469.624 159.158 464.77 167.961C460.093 176.581 453.53 183.367 445.077 188.32C436.625 193.087 426.823 195.472 415.673 195.472C404.703 195.472 394.901 192.996 386.269 188.044C377.816 183.092 371.163 176.306 366.307 167.686C361.631 158.881 359.294 148.795 359.294 137.424L359.259 102.125C359.259 98.9354 358.768 96.2017 357.785 93.9234C356.713 91.7364 355.193 90.0508 353.228 88.8661C351.173 87.6813 348.76 87.0893 345.99 87.0893C341.701 87.0893 338.44 88.3647 336.206 90.9166C333.883 93.5592 332.721 97.2952 332.721 102.125Z" fill="#11B7A7"/>
<path fill-rule="evenodd" clip-rule="evenodd" d="M545.59 57.7734C556.037 57.7734 565.228 59.7023 573.162 63.5626L573.541 63.7367C581.488 67.4175 588.125 72.9687 593.449 80.3902L593.515 80.4827L574.443 99.9327L574.348 99.8117C570.582 95.0563 566.28 91.4938 561.446 89.1202C556.612 86.7466 551.058 85.5577 544.781 85.5577C538.857 85.5577 534.299 86.4731 531.09 88.2904C527.892 90.1023 526.303 92.7194 526.303 96.1513C526.303 99.7695 527.896 102.57 531.095 104.563C534.319 106.572 538.442 108.31 543.469 109.775C548.686 111.243 554.082 112.894 559.656 114.728C565.422 116.382 570.826 118.771 575.872 121.894C581.106 124.839 585.347 128.89 588.595 134.042L588.748 134.276C591.902 139.227 593.473 145.688 593.473 153.65C593.473 166.523 589.054 176.741 580.208 184.291C571.364 191.837 559.37 195.602 544.24 195.602C537.035 195.602 530.099 194.684 523.433 192.847H523.432L523.43 192.845C516.765 190.825 510.64 188.068 505.053 184.578L505.051 184.575C499.464 180.9 494.599 176.488 490.453 171.341L490.378 171.247L490.462 171.162L509.45 151.797L509.546 151.91C514.03 157.215 519.14 161.237 524.875 163.98C530.789 166.538 537.424 167.82 544.781 167.82C551.425 167.82 556.432 166.812 559.818 164.812C563.195 162.818 564.877 159.927 564.877 156.126C564.877 152.133 563.278 149.059 560.08 146.884C556.859 144.694 552.648 142.865 547.441 141.4H547.438L547.436 141.398C542.403 139.748 537.008 138.098 531.256 136.448L531.254 136.447C525.671 134.794 520.266 132.589 515.043 129.835L515.042 129.834L515.039 129.832C509.984 126.887 505.833 122.929 502.585 117.959C499.328 112.979 497.707 106.531 497.707 98.6269C497.707 90.1689 499.6 82.8984 503.392 76.8209L503.394 76.8182C507.364 70.7433 512.871 66.0505 519.904 62.7383H519.906C527.122 59.4275 535.683 57.7734 545.59 57.7734ZM530.294 166.051C530.488 166.106 530.684 166.16 530.879 166.213C530.784 166.187 530.688 166.161 530.593 166.134C530.393 166.08 530.195 166.023 529.996 165.966L530.294 166.051ZM559.483 165.158C559.511 165.144 559.536 165.129 559.562 165.115L559.565 165.114C559.538 165.129 559.511 165.143 559.483 165.158ZM526.175 164.662C526.175 164.662 526.277 164.703 526.304 164.714C526.262 164.696 526.219 164.68 526.175 164.662ZM510.723 153.461C511.059 153.831 511.399 154.194 511.742 154.55C511.472 154.27 511.206 153.986 510.94 153.698C510.867 153.619 510.795 153.54 510.723 153.461ZM574.377 121.154C574.457 121.2 574.537 121.246 574.616 121.294C574.457 121.2 574.298 121.106 574.137 121.015L574.377 121.154ZM566.709 117.34C566.795 117.375 566.879 117.41 566.965 117.446L566.709 117.34C566.623 117.303 566.539 117.269 566.453 117.234L566.709 117.34ZM526.167 96.1513C526.167 96.1866 526.167 96.2234 526.168 96.2601L526.167 96.1513ZM570.368 95.2317C570.433 95.2943 570.497 95.3555 570.563 95.4181L570.368 95.2317C570.304 95.1705 570.239 95.1093 570.174 95.0481L570.368 95.2317ZM542.882 85.4543C542.724 85.4598 542.566 85.4666 542.41 85.4734C542.479 85.4706 542.548 85.4666 542.618 85.4639C542.706 85.4611 542.793 85.457 542.882 85.4543ZM503.161 77.4588C503.114 77.5391 503.066 77.6207 503.018 77.701C503.069 77.6139 503.12 77.5268 503.172 77.4411L503.161 77.4588Z" fill="white"/>
<path fill-rule="evenodd" clip-rule="evenodd" d="M740.643 57.7734C750.732 57.7734 760.102 59.7948 768.752 63.8374C777.584 67.6978 785.064 73.3047 791.192 80.6568L791.271 80.7506L771.658 101.032L771.56 100.913C767.797 96.3458 763.23 92.9669 757.857 90.7742L757.851 90.7715C752.655 88.3965 746.92 87.2077 740.643 87.2077C733.292 87.2077 726.752 88.9447 721.021 92.4147L721.02 92.416C715.467 95.7037 711.078 100.27 707.853 106.118L707.711 106.393C704.76 112.178 703.282 118.942 703.282 126.689C703.282 134.373 704.807 141.228 707.853 147.26C711.078 153.106 715.467 157.763 721.02 161.235C726.752 164.522 733.291 166.168 740.643 166.168C746.92 166.168 752.656 165.071 757.853 162.879L758.104 162.766C763.371 160.394 767.856 156.959 771.56 152.462L771.658 152.344L791.271 172.625L791.192 172.719C785.064 180.071 777.584 185.769 768.755 189.813H768.753C760.102 193.674 750.732 195.602 740.643 195.602C727.852 195.602 716.228 192.571 705.776 186.505H705.774C695.503 180.44 687.393 172.17 681.448 161.694C675.499 151.218 672.527 139.548 672.527 126.689C672.527 113.644 675.499 101.974 681.448 91.6801C687.393 81.2063 695.503 72.936 705.774 66.8721L705.776 66.8707C716.228 60.8054 727.852 57.7734 740.643 57.7734ZM706.087 186.528C706.174 186.579 706.261 186.628 706.348 186.678C706.261 186.628 706.176 186.579 706.089 186.528H706.087ZM695.02 178.469C695.087 178.53 695.155 178.59 695.222 178.65C695.087 178.53 694.952 178.409 694.819 178.288L695.02 178.469ZM689.152 172.461C689.174 172.485 689.196 172.51 689.216 172.534C689.136 172.442 689.056 172.348 688.975 172.254L689.152 172.461ZM684.044 165.677C684.062 165.704 684.081 165.732 684.099 165.76C684.03 165.655 683.962 165.549 683.892 165.445L684.044 165.677ZM720.951 161.353C721.032 161.399 721.115 161.445 721.197 161.492L720.951 161.353ZM719.413 160.341C719.439 160.359 719.467 160.378 719.492 160.395C719.456 160.37 719.419 160.345 719.382 160.319L719.413 160.341ZM679.975 158.656C680.007 158.722 680.041 158.788 680.075 158.854C679.999 158.705 679.924 158.555 679.85 158.405L679.975 158.656ZM712.063 153.657C712.186 153.804 712.312 153.949 712.437 154.095C712.377 154.024 712.316 153.955 712.256 153.884C712.192 153.809 712.128 153.733 712.063 153.657ZM677.363 152.785C677.43 152.958 677.498 153.132 677.567 153.304L677.465 153.045C677.431 152.958 677.397 152.871 677.363 152.785ZM708.673 148.941C708.889 149.293 709.11 149.641 709.335 149.985L709.167 149.727C709.111 149.64 709.057 149.554 709.001 149.467C708.891 149.293 708.782 149.118 708.673 148.941ZM708.144 148.05C708.213 148.17 708.283 148.289 708.353 148.408L708.196 148.14C708.178 148.11 708.162 148.08 708.144 148.05ZM707.732 147.322C707.698 147.253 707.662 147.183 707.628 147.114L707.732 147.322ZM703.15 127.408C703.154 127.761 703.163 128.113 703.174 128.462C703.163 128.11 703.154 127.758 703.15 127.403V127.408ZM703.365 121.657C703.356 121.774 703.345 121.89 703.335 122.007L703.365 121.657C703.376 121.541 703.387 121.425 703.398 121.309L703.365 121.657ZM703.846 117.908C703.828 118.018 703.809 118.13 703.791 118.242C703.826 118.018 703.865 117.797 703.903 117.576L703.846 117.908ZM704.517 114.655C704.492 114.761 704.466 114.867 704.44 114.973L704.517 114.655C704.543 114.549 704.571 114.442 704.598 114.338L704.517 114.655ZM766.244 95.4943C766.313 95.5487 766.384 95.6044 766.453 95.6602L766.244 95.4943C766.173 95.4385 766.104 95.3841 766.033 95.3283L766.244 95.4943ZM720.951 92.2991C720.869 92.3467 720.789 92.3956 720.708 92.4446L720.951 92.2991ZM724.558 90.3906C724.539 90.4002 724.52 90.4083 724.501 90.4165C724.532 90.4029 724.565 90.3879 724.596 90.373L724.558 90.3906ZM738.929 87.1043C737.91 87.1424 736.908 87.2145 735.92 87.3219C736.249 87.2866 736.58 87.2539 736.913 87.2267C737.578 87.1696 738.25 87.1288 738.929 87.1043Z" fill="white"/>
<path fill-rule="evenodd" clip-rule="evenodd" d="M864.068 57.7734C873.98 57.7734 882.727 59.9798 890.302 64.3937C895.443 67.1999 899.872 70.7324 903.587 74.9941V60.5252H933.533V192.851H903.587V178.591C899.981 182.815 895.642 186.371 890.572 189.257L890.571 189.258H890.57C882.815 193.489 873.979 195.602 864.068 195.602C852.354 195.602 841.718 192.569 832.164 186.502H832.162C822.792 180.436 815.313 172.257 809.727 161.968V161.966L809.725 161.965C804.32 151.49 801.618 139.822 801.618 126.963C801.618 113.921 804.32 102.253 809.727 91.9604C815.268 81.5681 822.673 73.3441 831.943 67.2924L832.162 67.1496C841.717 60.8993 852.354 57.7734 864.068 57.7734ZM833.134 186.946C833.177 186.973 833.221 186.999 833.264 187.026C833.146 186.954 833.027 186.882 832.909 186.809L833.134 186.946ZM828.404 183.71C828.439 183.736 828.475 183.763 828.51 183.789C828.405 183.711 828.301 183.632 828.197 183.553L828.404 183.71ZM823.642 179.749C823.704 179.807 823.768 179.865 823.832 179.923C823.741 179.84 823.65 179.757 823.56 179.674C823.587 179.699 823.613 179.723 823.642 179.749ZM822.885 179.046C822.948 179.104 823.011 179.164 823.073 179.222L822.885 179.046C822.824 178.986 822.762 178.927 822.699 178.867L822.885 179.046ZM820.867 177.047C820.901 177.083 820.936 177.118 820.972 177.155C820.876 177.057 820.781 176.959 820.687 176.861L820.867 177.047ZM816.265 171.747C816.32 171.816 816.373 171.884 816.427 171.953L816.265 171.747C816.158 171.609 816.05 171.47 815.944 171.332L816.265 171.747ZM868.924 86.6581C861.753 86.6581 855.394 88.3938 849.843 91.8638V91.8651C844.47 95.1515 840.17 99.8089 836.944 105.84C833.898 111.872 832.373 118.82 832.373 126.689C832.373 134.556 833.898 141.504 836.944 147.536C840.17 153.567 844.47 158.316 849.843 161.787C855.394 165.073 861.753 166.719 868.924 166.719C879.859 166.719 888.633 162.973 895.258 155.485L895.26 155.484C902.068 147.993 905.475 138.398 905.475 126.689C905.475 118.82 903.95 111.872 900.903 105.84C897.858 99.8103 893.559 95.1528 888.007 91.8651L888.006 91.8638L888.003 91.8624C882.633 88.3938 876.275 86.6581 868.924 86.6581ZM849.519 161.738C849.603 161.794 849.686 161.848 849.771 161.903C849.602 161.794 849.435 161.684 849.269 161.572L849.519 161.738ZM836.822 105.779C836.759 105.907 836.695 106.035 836.632 106.163L836.727 105.971C836.759 105.907 836.79 105.843 836.822 105.779ZM850.033 91.5863C849.946 91.6407 849.858 91.6937 849.771 91.7482C849.696 91.7944 849.62 91.842 849.545 91.8883L849.771 91.7482C849.945 91.6393 850.12 91.5332 850.296 91.4271L850.033 91.5863ZM852.171 90.3825C852.158 90.3879 852.146 90.3947 852.133 90.4015C852.237 90.3485 852.34 90.2954 852.444 90.2424L852.171 90.3825ZM890.235 64.5121C890.466 64.6386 890.696 64.7664 890.925 64.8957C890.816 64.8344 890.706 64.7719 890.597 64.712L890.235 64.5121ZM885.186 61.9725C885.16 61.9616 885.135 61.9507 885.111 61.9399C885.093 61.9331 885.077 61.9262 885.061 61.9181C885.103 61.9358 885.144 61.9548 885.186 61.9725Z" fill="white"/>
<path fill-rule="evenodd" clip-rule="evenodd" d="M93.2023 119.875L164.573 0.0663765L164.612 0H186.406V192.851H155.111V69.8837L104.071 155.436H82.3353L31.2937 69.8837V192.851H0V0H21.7938L93.2023 119.875Z" fill="white"/>
<path d="M647.881 60.5254H617.936V192.851H647.881V60.5254Z" fill="white"/>
<path fill-rule="evenodd" clip-rule="evenodd" d="M632.908 0C638.157 0 642.42 1.75539 645.686 5.27066C648.949 8.78307 650.579 13.1263 650.579 18.2939C650.579 23.4601 648.949 27.8047 645.686 31.3168C642.42 34.8317 638.157 36.5864 632.908 36.5864C627.837 36.5864 623.575 34.8303 620.132 31.3195L620.13 31.3168C616.866 27.8047 615.237 23.4601 615.237 18.2939C615.237 13.1263 616.866 8.78307 620.13 5.27066L620.131 5.26916L620.132 5.26807C623.575 1.75621 627.837 0 632.908 0ZM620.715 31.7031C620.749 31.7344 620.784 31.767 620.818 31.7997C620.728 31.7154 620.64 31.631 620.551 31.5453L620.715 31.7031ZM615.378 18.7686V18.8067C615.378 18.7863 615.378 18.7659 615.377 18.7455L615.378 18.7686ZM647.13 7.25879C647.124 7.25022 647.118 7.24164 647.111 7.23307C647.105 7.22274 647.098 7.2124 647.09 7.20206C647.103 7.22097 647.117 7.23988 647.13 7.25879ZM622.944 3.07618C622.898 3.10733 622.853 3.13889 622.807 3.17059C622.858 3.13454 622.91 3.0989 622.962 3.0634L622.944 3.07618Z" fill="white"/>
<path d="M987.768 190.701C987.768 192.134 987.298 193.321 986.357 194.262C985.372 195.158 984.185 195.605 982.796 195.605C981.363 195.605 980.176 195.158 979.235 194.262C978.295 193.321 977.824 192.134 977.824 190.701C977.824 189.268 978.295 188.103 979.235 187.207C980.176 186.267 981.363 185.796 982.796 185.796C984.185 185.796 985.372 186.267 986.357 187.207C987.298 188.103 987.768 189.268 987.768 190.701Z" fill="#11B7A7" fill-opacity="0.6"/>
<path d="M987.768 163.124C987.768 166.304 987.029 169.193 985.551 171.791C984.073 174.344 982.057 176.359 979.504 177.838C976.951 179.316 974.107 180.055 970.972 180.055C967.791 180.055 964.947 179.316 962.439 177.838C959.886 176.359 957.87 174.344 956.392 171.791C954.914 169.193 954.175 166.304 954.175 163.124C954.175 160.615 954.668 158.286 955.653 156.137C956.594 153.942 957.96 152.083 959.751 150.56L964.656 155.398C963.536 156.338 962.708 157.48 962.17 158.824C961.588 160.123 961.297 161.556 961.297 163.124C961.297 164.96 961.722 166.595 962.573 168.028C963.38 169.417 964.499 170.514 965.933 171.321C967.366 172.082 969.046 172.463 970.972 172.463C972.853 172.463 974.532 172.082 976.01 171.321C977.444 170.514 978.586 169.417 979.437 168.028C980.243 166.595 980.646 164.96 980.646 163.124C980.646 161.556 980.378 160.123 979.84 158.824C979.258 157.48 978.407 156.338 977.287 155.398L982.192 150.56C983.983 152.083 985.372 153.942 986.357 156.137C987.298 158.286 987.768 160.615 987.768 163.124Z" fill="#11B7A7" fill-opacity="0.6"/>
<path d="M987.768 131.109C987.768 134.244 987.029 137.088 985.551 139.642C984.028 142.194 981.99 144.233 979.437 145.755C976.884 147.233 974.04 147.973 970.904 147.973C967.769 147.973 964.947 147.233 962.439 145.755C959.931 144.233 957.937 142.194 956.459 139.642C954.936 137.088 954.175 134.244 954.175 131.109C954.175 127.929 954.914 125.062 956.392 122.509C957.87 119.956 959.886 117.94 962.439 116.462C964.947 114.94 967.769 114.178 970.904 114.178C974.04 114.178 976.884 114.94 979.437 116.462C981.99 117.94 984.028 119.956 985.551 122.509C987.029 125.062 987.768 127.929 987.768 131.109ZM980.646 131.109C980.646 129.272 980.243 127.66 979.437 126.271C978.586 124.838 977.421 123.741 975.943 122.979C974.465 122.173 972.786 121.77 970.904 121.77C969.023 121.77 967.366 122.173 965.933 122.979C964.499 123.786 963.38 124.883 962.573 126.271C961.722 127.66 961.297 129.272 961.297 131.109C961.297 132.9 961.722 134.513 962.573 135.946C963.38 137.335 964.499 138.432 965.933 139.238C967.366 140 969.023 140.381 970.904 140.381C972.786 140.381 974.465 140 975.943 139.238C977.421 138.432 978.586 137.335 979.437 135.946C980.243 134.513 980.646 132.9 980.646 131.109Z" fill="#11B7A7" fill-opacity="0.6"/>
<path fill-rule="evenodd" clip-rule="evenodd" d="M967.881 100.641H987.096V108.031H954.847V100.641H958.144C957.167 99.7706 956.359 98.7404 955.72 97.5503C954.69 95.7139 954.175 93.6535 954.175 91.3691C954.175 89.0848 954.668 87.0244 955.653 85.188C956.588 83.4452 957.886 82.0452 959.548 80.9883C957.919 79.8161 956.643 78.3494 955.72 76.5881C955.672 76.4976 955.625 76.4068 955.579 76.3155C954.643 74.464 954.175 72.4498 954.175 70.2728C954.175 67.9436 954.668 65.8386 955.653 63.9572C956.639 62.0762 958.027 60.5755 959.819 59.4558C961.61 58.3361 963.76 57.7761 966.269 57.7761H987.096V65.1668H967.881C965.731 65.1668 964.074 65.8386 962.909 67.1822C961.7 68.5259 961.095 70.1833 961.095 72.1539C961.095 73.4529 961.364 74.6398 961.901 75.7149C962.439 76.7897 963.223 77.6409 964.253 78.2678C965.238 78.895 966.448 79.2085 967.881 79.2085H987.096V86.5989H967.881C965.731 86.5989 964.074 87.2707 962.909 88.6143C961.7 89.9583 961.095 91.6154 961.095 93.5863C961.095 94.9299 961.364 96.1394 961.901 97.2142C962.439 98.2444 963.223 99.073 964.253 99.7002C965.238 100.327 966.448 100.641 967.881 100.641Z" fill="#11B7A7" fill-opacity="0.6"/>
</svg>
